<mxfile host="app.diagrams.net" modified="2020-05-05T18:42:13.403Z" agent="5.0 (Windows NT 10.0; Win64; x64) AppleWebKit/537.36 (KHTML, like Gecko) Chrome/81.0.4044.129 Safari/537.36" etag="gm_mE2DGyCo3GLmYTh7z" version="13.0.8" type="github">
  <diagram id="Lk74XoYKnYpU-4dZqS-C" name="Page-1">
    <mxGraphModel dx="782" dy="469" grid="1" gridSize="10" guides="1" tooltips="1" connect="1" arrows="1" fold="1" page="1" pageScale="1" pageWidth="827" pageHeight="1169" math="0" shadow="0">
      <root>
        <mxCell id="0" />
        <mxCell id="1" parent="0" />
        <mxCell id="1xcK4z-7fmxsR_L0OcB_-3" style="edgeStyle=orthogonalEdgeStyle;rounded=0;orthogonalLoop=1;jettySize=auto;html=1;exitX=0.5;exitY=1;exitDx=0;exitDy=0;" parent="1" edge="1">
          <mxGeometry relative="1" as="geometry">
            <mxPoint x="410" y="100" as="sourcePoint" />
            <mxPoint x="410" y="100" as="targetPoint" />
          </mxGeometry>
        </mxCell>
        <mxCell id="1xcK4z-7fmxsR_L0OcB_-4" value="Add Inventory" style="rounded=1;whiteSpace=wrap;html=1;arcSize=40;fontColor=#000000;fillColor=#ffffc0;strokeColor=#ff0000;" parent="1" vertex="1">
          <mxGeometry x="339" y="100" width="120" height="40" as="geometry" />
        </mxCell>
        <mxCell id="1xcK4z-7fmxsR_L0OcB_-5" value="" style="edgeStyle=orthogonalEdgeStyle;html=1;verticalAlign=bottom;endArrow=open;endSize=8;strokeColor=#ff0000;" parent="1" source="1xcK4z-7fmxsR_L0OcB_-4" edge="1">
          <mxGeometry relative="1" as="geometry">
            <mxPoint x="399" y="190" as="targetPoint" />
          </mxGeometry>
        </mxCell>
        <mxCell id="1xcK4z-7fmxsR_L0OcB_-12" value="" style="edgeStyle=orthogonalEdgeStyle;rounded=0;orthogonalLoop=1;jettySize=auto;html=1;entryX=0.5;entryY=0;entryDx=0;entryDy=0;" parent="1" source="1xcK4z-7fmxsR_L0OcB_-6" target="1xcK4z-7fmxsR_L0OcB_-4" edge="1">
          <mxGeometry relative="1" as="geometry">
            <mxPoint x="399" y="90" as="targetPoint" />
          </mxGeometry>
        </mxCell>
        <mxCell id="1xcK4z-7fmxsR_L0OcB_-6" value="" style="ellipse;html=1;shape=startState;fillColor=#000000;strokeColor=#ff0000;" parent="1" vertex="1">
          <mxGeometry x="384" y="30" width="30" height="30" as="geometry" />
        </mxCell>
        <mxCell id="1xcK4z-7fmxsR_L0OcB_-15" value="Fill in the Supplier, Product and the Quantity" style="rounded=1;whiteSpace=wrap;html=1;arcSize=40;fontColor=#000000;fillColor=#ffffc0;strokeColor=#ff0000;" parent="1" vertex="1">
          <mxGeometry x="339" y="190" width="120" height="40" as="geometry" />
        </mxCell>
        <mxCell id="1xcK4z-7fmxsR_L0OcB_-16" value="" style="edgeStyle=orthogonalEdgeStyle;html=1;verticalAlign=bottom;endArrow=open;endSize=8;strokeColor=#ff0000;" parent="1" source="1xcK4z-7fmxsR_L0OcB_-15" target="1xcK4z-7fmxsR_L0OcB_-18" edge="1">
          <mxGeometry relative="1" as="geometry">
            <mxPoint x="399" y="280" as="targetPoint" />
          </mxGeometry>
        </mxCell>
        <mxCell id="1xcK4z-7fmxsR_L0OcB_-19" style="edgeStyle=orthogonalEdgeStyle;rounded=0;orthogonalLoop=1;jettySize=auto;html=1;" parent="1" source="1xcK4z-7fmxsR_L0OcB_-18" edge="1">
          <mxGeometry relative="1" as="geometry">
            <mxPoint x="460" y="210" as="targetPoint" />
            <Array as="points">
              <mxPoint x="570" y="295" />
              <mxPoint x="570" y="210" />
            </Array>
          </mxGeometry>
        </mxCell>
        <mxCell id="1xcK4z-7fmxsR_L0OcB_-22" style="edgeStyle=orthogonalEdgeStyle;rounded=0;orthogonalLoop=1;jettySize=auto;html=1;" parent="1" source="1xcK4z-7fmxsR_L0OcB_-18" edge="1">
          <mxGeometry relative="1" as="geometry">
            <mxPoint x="399" y="400" as="targetPoint" />
          </mxGeometry>
        </mxCell>
        <mxCell id="1xcK4z-7fmxsR_L0OcB_-18" value="Invalid Input or &lt;br&gt;Empty Fields" style="rhombus;whiteSpace=wrap;html=1;fillColor=#ffffc0;strokeColor=#ff0000;" parent="1" vertex="1">
          <mxGeometry x="324" y="262" width="150" height="70" as="geometry" />
        </mxCell>
        <mxCell id="1xcK4z-7fmxsR_L0OcB_-21" value="Yes" style="text;html=1;align=center;verticalAlign=middle;resizable=0;points=[];autosize=1;" parent="1" vertex="1">
          <mxGeometry x="488" y="270" width="30" height="20" as="geometry" />
        </mxCell>
        <mxCell id="1xcK4z-7fmxsR_L0OcB_-23" value="No" style="text;html=1;align=center;verticalAlign=middle;resizable=0;points=[];autosize=1;" parent="1" vertex="1">
          <mxGeometry x="414" y="341" width="30" height="20" as="geometry" />
        </mxCell>
        <mxCell id="1xcK4z-7fmxsR_L0OcB_-39" value="Confirms the Purchase" style="rhombus;whiteSpace=wrap;html=1;fillColor=#ffffc0;strokeColor=#ff0000;" parent="1" vertex="1">
          <mxGeometry x="330" y="370" width="140" height="60" as="geometry" />
        </mxCell>
        <mxCell id="1xcK4z-7fmxsR_L0OcB_-40" value="No" style="edgeStyle=orthogonalEdgeStyle;html=1;align=left;verticalAlign=bottom;endArrow=open;endSize=8;strokeColor=#ff0000;entryX=0.5;entryY=0;entryDx=0;entryDy=0;" parent="1" source="1xcK4z-7fmxsR_L0OcB_-39" target="1xcK4z-7fmxsR_L0OcB_-42" edge="1">
          <mxGeometry x="-1" relative="1" as="geometry">
            <mxPoint x="550" y="430" as="targetPoint" />
            <Array as="points">
              <mxPoint x="670" y="400" />
            </Array>
          </mxGeometry>
        </mxCell>
        <mxCell id="1xcK4z-7fmxsR_L0OcB_-41" value="Yes" style="edgeStyle=orthogonalEdgeStyle;html=1;align=left;verticalAlign=top;endArrow=open;endSize=8;strokeColor=#ff0000;" parent="1" source="1xcK4z-7fmxsR_L0OcB_-39" edge="1">
          <mxGeometry x="-1" relative="1" as="geometry">
            <mxPoint x="400" y="510" as="targetPoint" />
          </mxGeometry>
        </mxCell>
        <mxCell id="1xcK4z-7fmxsR_L0OcB_-42" value="Cancel" style="rounded=1;whiteSpace=wrap;html=1;arcSize=40;fontColor=#000000;fillColor=#ffffc0;strokeColor=#ff0000;" parent="1" vertex="1">
          <mxGeometry x="610" y="450" width="120" height="40" as="geometry" />
        </mxCell>
        <mxCell id="1xcK4z-7fmxsR_L0OcB_-43" value="" style="edgeStyle=orthogonalEdgeStyle;html=1;verticalAlign=bottom;endArrow=open;endSize=8;strokeColor=#ff0000;" parent="1" source="1xcK4z-7fmxsR_L0OcB_-48" edge="1">
          <mxGeometry relative="1" as="geometry">
            <mxPoint x="608" y="590" as="targetPoint" />
            <Array as="points">
              <mxPoint x="670" y="590" />
            </Array>
          </mxGeometry>
        </mxCell>
        <mxCell id="1xcK4z-7fmxsR_L0OcB_-46" value="An Invoice is generated" style="rounded=1;whiteSpace=wrap;html=1;arcSize=40;fontColor=#000000;fillColor=#ffffc0;strokeColor=#ff0000;" parent="1" vertex="1">
          <mxGeometry x="340" y="510" width="120" height="40" as="geometry" />
        </mxCell>
        <mxCell id="1xcK4z-7fmxsR_L0OcB_-47" value="" style="edgeStyle=orthogonalEdgeStyle;html=1;verticalAlign=bottom;endArrow=open;endSize=8;strokeColor=#ff0000;" parent="1" source="1xcK4z-7fmxsR_L0OcB_-46" target="1xcK4z-7fmxsR_L0OcB_-48" edge="1">
          <mxGeometry relative="1" as="geometry">
            <mxPoint x="560" y="570" as="targetPoint" />
            <Array as="points">
              <mxPoint x="400" y="570" />
              <mxPoint x="570" y="570" />
            </Array>
          </mxGeometry>
        </mxCell>
        <mxCell id="1xcK4z-7fmxsR_L0OcB_-51" value="" style="edgeStyle=orthogonalEdgeStyle;html=1;verticalAlign=bottom;endArrow=open;endSize=8;strokeColor=#ff0000;" parent="1" source="1xcK4z-7fmxsR_L0OcB_-50" target="1xcK4z-7fmxsR_L0OcB_-53" edge="1">
          <mxGeometry relative="1" as="geometry">
            <mxPoint x="630" y="730" as="targetPoint" />
          </mxGeometry>
        </mxCell>
        <mxCell id="1xcK4z-7fmxsR_L0OcB_-50" value="Back to the Inventory Items" style="rounded=1;whiteSpace=wrap;html=1;arcSize=40;fontColor=#000000;fillColor=#ffffc0;strokeColor=#ff0000;" parent="1" vertex="1">
          <mxGeometry x="570" y="640" width="130" height="40" as="geometry" />
        </mxCell>
        <mxCell id="1xcK4z-7fmxsR_L0OcB_-52" value="" style="edgeStyle=orthogonalEdgeStyle;html=1;verticalAlign=bottom;endArrow=open;endSize=8;strokeColor=#ff0000;" parent="1" source="1xcK4z-7fmxsR_L0OcB_-48" target="1xcK4z-7fmxsR_L0OcB_-50" edge="1">
          <mxGeometry relative="1" as="geometry">
            <mxPoint x="630" y="665" as="targetPoint" />
            <mxPoint x="630" y="595" as="sourcePoint" />
          </mxGeometry>
        </mxCell>
        <mxCell id="1xcK4z-7fmxsR_L0OcB_-53" value="" style="ellipse;html=1;shape=endState;fillColor=#000000;strokeColor=#ff0000;" parent="1" vertex="1">
          <mxGeometry x="620" y="720" width="30" height="30" as="geometry" />
        </mxCell>
        <mxCell id="1xcK4z-7fmxsR_L0OcB_-48" value="" style="shape=line;html=1;strokeWidth=6;strokeColor=#ff0000;" parent="1" vertex="1">
          <mxGeometry x="535" y="585" width="200" height="10" as="geometry" />
        </mxCell>
        <mxCell id="9wQjwLWXGUns_v5oUAE9-1" value="" style="edgeStyle=orthogonalEdgeStyle;html=1;verticalAlign=bottom;endArrow=open;endSize=8;strokeColor=#ff0000;entryX=0.678;entryY=0.433;entryDx=0;entryDy=0;entryPerimeter=0;" parent="1" source="1xcK4z-7fmxsR_L0OcB_-42" target="1xcK4z-7fmxsR_L0OcB_-48" edge="1">
          <mxGeometry relative="1" as="geometry">
            <mxPoint x="608" y="590" as="targetPoint" />
            <Array as="points" />
            <mxPoint x="670" y="490" as="sourcePoint" />
          </mxGeometry>
        </mxCell>
        <mxCell id="9wQjwLWXGUns_v5oUAE9-2" style="edgeStyle=orthogonalEdgeStyle;rounded=0;orthogonalLoop=1;jettySize=auto;html=1;exitX=1;exitY=0.5;exitDx=0;exitDy=0;entryX=1;entryY=0;entryDx=0;entryDy=0;" parent="1" source="1xcK4z-7fmxsR_L0OcB_-53" target="1xcK4z-7fmxsR_L0OcB_-53" edge="1">
          <mxGeometry relative="1" as="geometry" />
        </mxCell>
      </root>
    </mxGraphModel>
  </diagram>
</mxfile>
